<?xml version="1.0" encoding="UTF-8" standalone="no"?>
<svg
   xmlns:dc="http://purl.org/dc/elements/1.1/"
   xmlns:cc="http://creativecommons.org/ns#"
   xmlns:rdf="http://www.w3.org/1999/02/22-rdf-syntax-ns#"
   xmlns:svg="http://www.w3.org/2000/svg"
   xmlns="http://www.w3.org/2000/svg"
   xmlns:sodipodi="http://sodipodi.sourceforge.net/DTD/sodipodi-0.dtd"
   xmlns:inkscape="http://www.inkscape.org/namespaces/inkscape"
   viewBox="0 0 448 512"
   id="svg2"
   version="1.1"
   inkscape:version="0.91 r13725"
   sodipodi:docname="cpp.svg">
  <metadata
     id="metadata10">
    <rdf:RDF>
      <cc:Work
         rdf:about="">
        <dc:format>image/svg+xml</dc:format>
        <dc:type
           rdf:resource="http://purl.org/dc/dcmitype/StillImage" />
      </cc:Work>
    </rdf:RDF>
  </metadata>
  <defs
     id="defs8" />
  <sodipodi:namedview
     pagecolor="#ffffff"
     bordercolor="#666666"
     borderopacity="1"
     objecttolerance="10"
     gridtolerance="10"
     guidetolerance="10"
     inkscape:pageopacity="0"
     inkscape:pageshadow="2"
     inkscape:window-width="1920"
     inkscape:window-height="1027"
     id="namedview6"
     showgrid="false"
     inkscape:zoom="0.4609375"
     inkscape:cx="-98.169495"
     inkscape:cy="251.66102"
     inkscape:window-x="0"
     inkscape:window-y="0"
     inkscape:window-maximized="1"
     inkscape:current-layer="svg2" />
  <g
     style="font-style:normal;font-variant:normal;font-weight:normal;font-stretch:normal;font-size:284.57443237px;line-height:125%;font-family:Chandas;-inkscape-font-specification:Chandas;letter-spacing:0px;word-spacing:0px;fill:#000000;fill-opacity:1;stroke:none;stroke-width:1px;stroke-linecap:butt;stroke-linejoin:miter;stroke-opacity:1"
     id="text4138"
     transform="matrix(2.2766675,0,0,2.2766675,-16.328704,-295.1082)">
    <path
       d="m 193.45224,281.0694 q -7.20214,28.19824 -25.8789,41.87011 -18.67676,13.67188 -50.1709,13.67188 -46.142578,0 -72.998047,-25.39063 -26.733398,-25.51269 -26.733398,-69.09179 0,-43.70117 26.733398,-69.0918 26.855469,-25.51269 72.998047,-25.51269 16.23535,0 33.81348,3.90625 17.57812,3.90625 37.23144,11.84082 l 0,44.7998 -15.50293,0 q -4.76074,-22.94922 -17.33398,-34.30176 -12.57324,-11.47461 -33.20313,-11.47461 -26.611325,0 -39.550778,19.65332 -12.939453,19.53125 -12.939453,60.18067 0,40.64941 12.939453,60.18066 12.939453,19.53125 39.794918,19.53125 18.18848,0 29.66309,-10.13183 11.59668,-10.13184 16.8457,-30.63965 l 24.29199,0 z"
       style="font-style:normal;font-variant:normal;font-weight:bold;font-stretch:normal;font-size:250px;font-family:'DejaVu Serif';-inkscape-font-specification:'DejaVu Serif Bold'"
       id="path4140"
       inkscape:connector-curvature="0" />
  </g>
  <g
     id="g4169"
     transform="matrix(0.8854714,0,0,0.8854714,-3.9663404,10.109099)">
    <path
       inkscape:connector-curvature="0"
       id="path4"
       d="m 338.3632,262.93462 -44.28087,0 0,-44.28087 c 0,-5.43363 -4.40657,-9.84019 -9.8402,-9.84019 l -9.84019,0 c -5.43363,0 -9.8402,4.40656 -9.8402,9.84019 l 0,44.28087 -44.28086,0 c -5.43364,0 -9.8402,4.40657 -9.8402,9.84019 l 0,9.8402 c 0,5.43363 4.40656,9.84019 9.8402,9.84019 l 44.28086,0 0,44.28087 c 0,5.43364 4.40657,9.84019 9.8402,9.84019 l 9.84019,0 c 5.43363,0 9.8402,-4.40655 9.8402,-9.84019 l 0,-44.28087 44.28087,0 c 5.43363,0 9.84019,-4.40656 9.84019,-9.84019 l 0,-9.8402 c 0,-5.43362 -4.40656,-9.84019 -9.84019,-9.84019 z" />
    <path
       inkscape:connector-curvature="0"
       id="path4-7"
       d="m 495.10896,262.93462 -44.28087,0 0,-44.28087 c 0,-5.43363 -4.40657,-9.84019 -9.8402,-9.84019 l -9.84019,0 c -5.43363,0 -9.8402,4.40656 -9.8402,9.84019 l 0,44.28087 -44.28086,0 c -5.43364,0 -9.8402,4.40657 -9.8402,9.84019 l 0,9.8402 c 0,5.43363 4.40656,9.84019 9.8402,9.84019 l 44.28086,0 0,44.28087 c 0,5.43364 4.40657,9.84019 9.8402,9.84019 l 9.84019,0 c 5.43363,0 9.8402,-4.40655 9.8402,-9.84019 l 0,-44.28087 44.28087,0 c 5.43363,0 9.84019,-4.40656 9.84019,-9.84019 l 0,-9.8402 c 0,-5.43362 -4.40656,-9.84019 -9.84019,-9.84019 z" />
  </g>
</svg>
